<?xml version="1.0" standalone="no"?>
<!DOCTYPE svg PUBLIC "-//W3C//DTD SVG 20010904//EN"
 "http://www.w3.org/TR/2001/REC-SVG-20010904/DTD/svg10.dtd">
<svg version="1.0" xmlns="http://www.w3.org/2000/svg"
 width="1080.000000pt" height="1080.000000pt" viewBox="0 0 1080.000000 1080.000000"
 preserveAspectRatio="xMidYMid meet">
<metadata>
Created by potrace 1.14, written by Peter Selinger 2001-2017
</metadata>
<g transform="translate(0.000000,1080.000000) scale(0.100000,-0.100000)"
fill="#000000" stroke="none">
<path d="M0 9730 l0 -1070 28 -1 c15 0 496 -1 1069 -2 1037 -2 1043 -2 1044
18 0 11 1 493 1 1070 l1 1050 -1071 3 -1072 2 0 -1070z"/>
<path d="M4332 9729 l3 -1072 1065 0 1065 0 3 1071 2 1072 -1070 0 -1070 0 2
-1071z"/>
<path d="M8659 10783 c-4 -111 0 -2115 4 -2120 5 -4 2051 -8 2125 -4 9 1 12
222 12 1071 l0 1070 -1070 0 c-1012 0 -1070 -1 -1071 -17z"/>
<path d="M2 7565 l3 -1070 1068 -1 c792 -1 1067 1 1068 10 5 79 0 2118 -5
2124 -4 4 -487 7 -1072 7 l-1064 0 2 -1070z"/>
<path d="M6495 8630 c-1 -3 -3 -483 -3 -1067 0 -973 2 -1063 17 -1067 26 -7
2121 -5 2122 2 4 22 3 2132 -1 2133 -17 4 -2132 3 -2135 -1z"/>
<path d="M0 5400 l0 -1070 1071 2 1072 3 -1 1055 c0 580 -1 1061 -1 1068 -1 9
-222 12 -1071 12 l-1070 0 0 -1070z"/>
<path d="M4330 5400 l0 -1070 1070 0 1070 0 0 1070 0 1070 -1070 0 -1070 0 0
-1070z"/>
<path d="M8657 5422 c1 -576 2 -1057 2 -1069 l1 -23 1070 0 1070 0 0 1070 0
1070 -1072 0 -1073 0 2 -1048z"/>
<path d="M2 3236 l3 -1071 1063 0 c631 0 1066 3 1069 9 4 5 6 486 6 1070 l0
1061 -1072 1 -1071 1 2 -1071z"/>
<path d="M17 2142 c-16 -3 -17 -80 -17 -1073 l0 -1069 1072 2 1071 3 0 1063
c0 584 -3 1065 -6 1069 -6 6 -2088 11 -2120 5z"/>
<path d="M2169 2145 c-1 0 -2 -483 -3 -1072 l-1 -1073 1071 0 1071 0 1 1070
c0 589 -3 1070 -7 1071 -4 0 -1915 4 -2132 4z"/>
<path d="M4334 2141 c-2 -2 -4 -485 -4 -1073 l0 -1068 1070 0 1070 0 -2 1072
-3 1071 -1063 1 c-585 1 -1066 -1 -1068 -3z"/>
<path d="M6508 2142 c-14 -3 -16 -111 -16 -1073 l1 -1069 1071 0 1071 0 -1
1068 c-1 587 -2 1069 -3 1072 -1 5 -2096 7 -2123 2z"/>
<path d="M8688 2142 c-16 -2 -28 -9 -29 -15 -1 -15 -1 -2073 0 -2104 l1 -23
1070 0 1070 0 0 1070 c0 849 -3 1070 -12 1071 -45 2 -2078 3 -2100 1z"/>
</g>
</svg>
