<?xml version="1.0" standalone="no"?>
<!DOCTYPE svg PUBLIC "-//W3C//DTD SVG 20010904//EN"
 "http://www.w3.org/TR/2001/REC-SVG-20010904/DTD/svg10.dtd">
<svg version="1.0" xmlns="http://www.w3.org/2000/svg"
 width="1080.000000pt" height="1080.000000pt" viewBox="0 0 1080.000000 1080.000000"
 preserveAspectRatio="xMidYMid meet">
<metadata>
Created by potrace 1.14, written by Peter Selinger 2001-2017
</metadata>
<g transform="translate(0.000000,1080.000000) scale(0.100000,-0.100000)"
fill="#000000" stroke="none">
<path d="M1389 9405 c-1 -5 -2 -317 -3 -692 l-1 -683 277 0 277 0 -1 -69 -1
-68 -216 -1 c-119 0 -243 -1 -276 -1 l-60 -1 0 -690 0 -690 70 -1 c38 0 162
-1 275 -2 l205 -2 3 -67 3 -68 -278 0 -278 0 1 -682 c1 -376 2 -688 3 -693 1
-7 91 -10 259 -10 141 1 265 -1 275 -3 15 -4 17 -14 15 -70 l-3 -66 -275 -1
-275 0 0 -690 0 -690 278 -3 277 -2 -1 -68 -1 -68 -262 0 c-143 1 -268 0 -276
-2 -13 -3 -15 -85 -15 -687 0 -376 3 -686 6 -690 4 -3 128 -6 277 -6 l271 0
-1 -270 c-1 -148 2 -273 6 -277 4 -4 316 -7 692 -7 603 0 684 2 685 15 3 50 4
1347 1 1358 -3 9 -68 12 -278 12 l-274 0 0 70 0 70 271 -1 c149 0 273 2 277 5
3 3 6 314 6 691 l1 685 -35 1 c-19 0 -144 0 -277 0 l-243 0 0 69 0 70 275 0
c213 0 275 3 276 13 0 6 2 315 2 685 1 439 -1 676 -8 681 -5 4 -126 7 -268 7
-142 -1 -263 1 -268 5 -6 3 -9 35 -7 70 l3 63 273 0 c149 0 272 2 273 5 0 3 2
128 2 276 l2 270 68 1 67 2 1 -122 c0 -66 0 -191 0 -277 l0 -155 482 0 482 0
3 -485 2 -484 271 0 c173 0 273 -3 277 -10 4 -5 7 -125 8 -265 1 -140 2 -261
3 -267 1 -10 146 -13 691 -13 l690 0 0 693 0 692 -277 0 -278 0 0 275 0 275
-484 5 -485 5 0 483 1 483 -201 -1 c-111 0 -235 -1 -277 0 l-77 0 2 275 c1
238 -1 275 -14 275 -8 1 -226 2 -485 3 l-470 2 0 482 0 483 -90 1 c-49 0 -174
1 -277 0 l-188 0 0 275 c0 151 -3 275 -7 275 -5 1 -315 2 -690 3 -452 1 -683
-2 -684 -9z m1517 -1997 l2 -68 -69 0 -69 0 0 68 0 68 68 0 67 -1 1 -67z"/>
<path d="M7478 9405 c-2 -5 -3 -316 -2 -690 l0 -680 277 -3 277 -2 0 -69 0
-68 -217 -1 c-120 0 -245 -1 -278 -1 l-60 -1 1 -270 c1 -159 -3 -273 -8 -276
-10 -7 -118 -7 -125 -1 -2 2 -3 126 -3 276 l0 271 -48 0 c-63 1 -1200 1 -1278
0 l-61 0 1 -690 0 -690 25 -1 c15 0 140 0 278 0 l253 0 -1 -212 c0 -117 0
-242 1 -278 l0 -66 476 1 c262 1 479 -1 483 -4 4 -3 7 -213 7 -468 -1 -255 2
-471 5 -480 6 -16 30 -17 268 -17 144 0 267 -2 272 -6 6 -3 9 -34 7 -69 l-3
-64 -274 -1 -275 0 0 -665 c-1 -366 1 -677 3 -693 l3 -27 274 0 274 0 0 -68 0
-69 -266 1 c-146 1 -271 -2 -277 -6 -7 -4 -11 -211 -11 -692 l-1 -686 30 0
c17 -1 141 -1 278 -1 l247 0 0 -277 0 -277 688 0 c378 -1 689 2 692 6 4 6 5
1347 1 1372 0 4 -125 7 -276 7 l-275 0 2 69 2 70 260 0 c144 0 268 0 276 0 13
1 15 83 15 691 0 683 0 690 -20 691 -11 0 -135 1 -275 2 l-255 2 -2 67 -2 68
277 2 277 3 0 688 c0 453 -3 687 -10 688 -5 1 -129 2 -275 3 l-265 1 -3 68
c-2 37 1 67 5 68 4 0 129 2 278 2 l270 2 0 690 0 690 -278 3 -278 2 3 68 3 67
267 1 c147 0 271 4 275 8 4 4 8 316 8 692 l0 684 -260 1 c-143 1 -268 1 -277
0 -16 -2 -18 15 -17 216 0 120 0 245 -1 278 l0 60 -690 0 c-454 0 -691 -3
-692 -10z m552 -2965 l0 -70 -70 0 -70 0 0 63 c0 35 3 67 7 70 3 4 35 7 70 7
l63 0 0 -70z"/>
</g>
</svg>
