<svg version="1.1" viewBox="0 0 3576 232" xmlns="http://www.w3.org/2000/svg">
 <g fill="#a2af9d">
  <rect x="16" y="16" width="40" height="40"/>
  <rect x="16" y="60" width="40" height="40"/>
  <rect x="16" y="104" width="40" height="40"/>
  <rect x="16" y="192" width="40" height="40"/>
  <rect x="60" y="16" width="40" height="40"/>
  <rect x="60" y="104" width="40" height="40"/>
  <rect x="60" y="192" width="40" height="40"/>
  <rect x="104" y="16" width="40" height="40"/>
  <rect x="104" y="104" width="40" height="40"/>
  <rect x="104" y="192" width="40" height="40"/>
  <rect x="148" y="16" width="40" height="40"/>
  <rect x="148" y="104" width="40" height="40"/>
  <rect x="148" y="192" width="40" height="40"/>
  <rect x="192" y="16" width="40" height="40"/>
  <rect x="192" y="104" width="40" height="40"/>
  <rect x="192" y="148" width="40" height="40"/>
  <rect x="192" y="192" width="40" height="40"/>
  <rect x="280" y="16" width="40" height="40"/>
  <rect x="280" y="192" width="40" height="40"/>
  <rect x="324" y="16" width="40" height="40"/>
  <rect x="324" y="192" width="40" height="40"/>
  <rect x="368" y="16" width="40" height="40"/>
  <rect x="368" y="60" width="40" height="40"/>
  <rect x="368" y="104" width="40" height="40"/>
  <rect x="368" y="148" width="40" height="40"/>
  <rect x="368" y="192" width="40" height="40"/>
  <rect x="412" y="16" width="40" height="40"/>
  <rect x="412" y="192" width="40" height="40"/>
  <rect x="456" y="16" width="40" height="40"/>
  <rect x="456" y="192" width="40" height="40"/>
  <rect x="544" y="16" width="40" height="40"/>
  <rect x="544" y="60" width="40" height="40"/>
  <rect x="544" y="104" width="40" height="40"/>
  <rect x="544" y="148" width="40" height="40"/>
  <rect x="544" y="192" width="40" height="40"/>
  <rect x="588" y="16" width="40" height="40"/>
  <rect x="588" y="192" width="40" height="40"/>
  <rect x="632" y="16" width="40" height="40"/>
  <rect x="632" y="192" width="40" height="40"/>
  <rect x="676" y="16" width="40" height="40"/>
  <rect x="676" y="104" width="40" height="40"/>
  <rect x="676" y="192" width="40" height="40"/>
  <rect x="720" y="16" width="40" height="40"/>
  <rect x="720" y="104" width="40" height="40"/>
  <rect x="720" y="148" width="40" height="40"/>
  <rect x="720" y="192" width="40" height="40"/>
  <rect x="808" y="16" width="40" height="40"/>
  <rect x="808" y="60" width="40" height="40"/>
  <rect x="808" y="104" width="40" height="40"/>
  <rect x="808" y="148" width="40" height="40"/>
  <rect x="808" y="192" width="40" height="40"/>
  <rect x="852" y="60" width="40" height="40"/>
  <rect x="896" y="104" width="40" height="40"/>
  <rect x="940" y="148" width="40" height="40"/>
  <rect x="984" y="16" width="40" height="40"/>
  <rect x="984" y="60" width="40" height="40"/>
  <rect x="984" y="104" width="40" height="40"/>
  <rect x="984" y="148" width="40" height="40"/>
  <rect x="984" y="192" width="40" height="40"/>
  <rect x="1072" y="16" width="40" height="40"/>
  <rect x="1072" y="60" width="40" height="40"/>
  <rect x="1072" y="104" width="40" height="40"/>
  <rect x="1072" y="148" width="40" height="40"/>
  <rect x="1072" y="192" width="40" height="40"/>
  <rect x="1116" y="16" width="40" height="40"/>
  <rect x="1116" y="104" width="40" height="40"/>
  <rect x="1160" y="16" width="40" height="40"/>
  <rect x="1160" y="104" width="40" height="40"/>
  <rect x="1204" y="16" width="40" height="40"/>
  <rect x="1204" y="104" width="40" height="40"/>
  <rect x="1248" y="16" width="40" height="40"/>
  <rect x="1248" y="60" width="40" height="40"/>
  <rect x="1248" y="104" width="40" height="40"/>
  <rect x="1248" y="148" width="40" height="40"/>
  <rect x="1248" y="192" width="40" height="40"/>
  <rect x="1336" y="16" width="40" height="40"/>
  <rect x="1336" y="60" width="40" height="40"/>
  <rect x="1336" y="104" width="40" height="40"/>
  <rect x="1336" y="148" width="40" height="40"/>
  <rect x="1336" y="192" width="40" height="40"/>
  <rect x="1380" y="192" width="40" height="40"/>
  <rect x="1424" y="192" width="40" height="40"/>
  <rect x="1468" y="192" width="40" height="40"/>
  <rect x="1512" y="192" width="40" height="40"/>
  <rect x="1688" y="16" width="40" height="40"/>
  <rect x="1688" y="60" width="40" height="40"/>
  <rect x="1688" y="104" width="40" height="40"/>
  <rect x="1688" y="148" width="40" height="40"/>
  <rect x="1688" y="192" width="40" height="40"/>
  <rect x="1732" y="16" width="40" height="40"/>
  <rect x="1732" y="192" width="40" height="40"/>
  <rect x="1776" y="16" width="40" height="40"/>
  <rect x="1776" y="192" width="40" height="40"/>
  <rect x="1820" y="16" width="40" height="40"/>
  <rect x="1820" y="104" width="40" height="40"/>
  <rect x="1820" y="192" width="40" height="40"/>
  <rect x="1864" y="16" width="40" height="40"/>
  <rect x="1864" y="104" width="40" height="40"/>
  <rect x="1864" y="148" width="40" height="40"/>
  <rect x="1864" y="192" width="40" height="40"/>
  <rect x="1952" y="16" width="40" height="40"/>
  <rect x="1952" y="60" width="40" height="40"/>
  <rect x="1952" y="104" width="40" height="40"/>
  <rect x="1952" y="148" width="40" height="40"/>
  <rect x="1952" y="192" width="40" height="40"/>
  <rect x="1996" y="16" width="40" height="40"/>
  <rect x="1996" y="104" width="40" height="40"/>
  <rect x="2040" y="16" width="40" height="40"/>
  <rect x="2040" y="104" width="40" height="40"/>
  <rect x="2084" y="16" width="40" height="40"/>
  <rect x="2084" y="104" width="40" height="40"/>
  <rect x="2128" y="16" width="40" height="40"/>
  <rect x="2128" y="60" width="40" height="40"/>
  <rect x="2128" y="104" width="40" height="40"/>
  <rect x="2128" y="148" width="40" height="40"/>
  <rect x="2128" y="192" width="40" height="40"/>
  <rect x="2216" y="16" width="40" height="40"/>
  <rect x="2216" y="60" width="40" height="40"/>
  <rect x="2216" y="104" width="40" height="40"/>
  <rect x="2216" y="148" width="40" height="40"/>
  <rect x="2216" y="192" width="40" height="40"/>
  <rect x="2260" y="16" width="40" height="40"/>
  <rect x="2260" y="104" width="40" height="40"/>
  <rect x="2304" y="16" width="40" height="40"/>
  <rect x="2304" y="104" width="40" height="40"/>
  <rect x="2348" y="16" width="40" height="40"/>
  <rect x="2348" y="104" width="40" height="40"/>
  <rect x="2392" y="16" width="40" height="40"/>
  <rect x="2392" y="60" width="40" height="40"/>
  <rect x="2392" y="104" width="40" height="40"/>
  <rect x="2568" y="16" width="40" height="40"/>
  <rect x="2744" y="16" width="40" height="40"/>
  <rect x="2568" y="60" width="40" height="40"/>
  <rect x="2612" y="60" width="40" height="40"/>
  <rect x="2700" y="60" width="40" height="40"/>
  <rect x="2744" y="60" width="40" height="40"/>
  <rect x="2568" y="104" width="40" height="40"/>
  <rect x="2656" y="104" width="40" height="40"/>
  <rect x="2744" y="104" width="40" height="40"/>
  <rect x="2568" y="148" width="40" height="40"/>
  <rect x="2744" y="148" width="40" height="40"/>
  <rect x="2568" y="192" width="40" height="40"/>
  <rect x="2744" y="192" width="40" height="40"/>
  <rect x="2832" y="16" width="40" height="40"/>
  <rect x="2876" y="16" width="40" height="40"/>
  <rect x="2920" y="16" width="40" height="40"/>
  <rect x="2964" y="16" width="40" height="40"/>
  <rect x="3008" y="16" width="40" height="40"/>
  <rect x="2832" y="60" width="40" height="40"/>
  <rect x="2832" y="104" width="40" height="40"/>
  <rect x="2876" y="104" width="40" height="40"/>
  <rect x="2920" y="104" width="40" height="40"/>
  <rect x="2964" y="104" width="40" height="40"/>
  <rect x="2832" y="148" width="40" height="40"/>
  <rect x="2832" y="192" width="40" height="40"/>
  <rect x="2876" y="192" width="40" height="40"/>
  <rect x="2920" y="192" width="40" height="40"/>
  <rect x="2964" y="192" width="40" height="40"/>
  <rect x="3008" y="192" width="40" height="40"/>
  <rect x="3096" y="16" width="40" height="40"/>
  <rect x="3140" y="16" width="40" height="40"/>
  <rect x="3184" y="16" width="40" height="40"/>
  <rect x="3228" y="16" width="40" height="40"/>
  <rect x="3272" y="16" width="40" height="40"/>
  <rect x="3096" y="60" width="40" height="40"/>
  <rect x="3096" y="104" width="40" height="40"/>
  <rect x="3140" y="104" width="40" height="40"/>
  <rect x="3184" y="104" width="40" height="40"/>
  <rect x="3228" y="104" width="40" height="40"/>
  <rect x="3272" y="104" width="40" height="40"/>
  <rect x="3272" y="148" width="40" height="40"/>
  <rect x="3096" y="192" width="40" height="40"/>
  <rect x="3140" y="192" width="40" height="40"/>
  <rect x="3184" y="192" width="40" height="40"/>
  <rect x="3228" y="192" width="40" height="40"/>
  <rect x="3272" y="192" width="40" height="40"/>
  <rect x="3360" y="16" width="40" height="40"/>
  <rect x="3536" y="16" width="40" height="40"/>
  <rect x="3360" y="60" width="40" height="40"/>
  <rect x="3536" y="60" width="40" height="40"/>
  <rect x="3360" y="104" width="40" height="40"/>
  <rect x="3404" y="104" width="40" height="40"/>
  <rect x="3448" y="104" width="40" height="40"/>
  <rect x="3492" y="104" width="40" height="40"/>
  <rect x="3536" y="104" width="40" height="40"/>
  <rect x="3360" y="148" width="40" height="40"/>
  <rect x="3536" y="148" width="40" height="40"/>
  <rect x="3360" y="192" width="40" height="40"/>
  <rect x="3536" y="192" width="40" height="40"/>
 </g>
 <g fill="#3b3c37">
  <rect x="0" width="40" height="40"/>
  <rect x="0" y="44" width="40" height="40"/>
  <rect x="0" y="88" width="40" height="40"/>
  <rect x="0" y="176" width="40" height="40"/>
  <rect x="44" width="40" height="40"/>
  <rect x="44" y="88" width="40" height="40"/>
  <rect x="44" y="176" width="40" height="40"/>
  <rect x="88" width="40" height="40"/>
  <rect x="88" y="88" width="40" height="40"/>
  <rect x="88" y="176" width="40" height="40"/>
  <rect x="132" width="40" height="40"/>
  <rect x="132" y="88" width="40" height="40"/>
  <rect x="132" y="176" width="40" height="40"/>
  <rect x="176" width="40" height="40"/>
  <rect x="176" y="88" width="40" height="40"/>
  <rect x="176" y="132" width="40" height="40"/>
  <rect x="176" y="176" width="40" height="40"/>
  <rect x="264" width="40" height="40"/>
  <rect x="264" y="176" width="40" height="40"/>
  <rect x="308" width="40" height="40"/>
  <rect x="308" y="176" width="40" height="40"/>
  <rect x="352" width="40" height="40"/>
  <rect x="352" y="44" width="40" height="40"/>
  <rect x="352" y="88" width="40" height="40"/>
  <rect x="352" y="132" width="40" height="40"/>
  <rect x="352" y="176" width="40" height="40"/>
  <rect x="396" width="40" height="40"/>
  <rect x="396" y="176" width="40" height="40"/>
  <rect x="440" width="40" height="40"/>
  <rect x="440" y="176" width="40" height="40"/>
  <rect x="528" width="40" height="40"/>
  <rect x="528" y="44" width="40" height="40"/>
  <rect x="528" y="88" width="40" height="40"/>
  <rect x="528" y="132" width="40" height="40"/>
  <rect x="528" y="176" width="40" height="40"/>
  <rect x="572" width="40" height="40"/>
  <rect x="572" y="176" width="40" height="40"/>
  <rect x="616" width="40" height="40"/>
  <rect x="616" y="176" width="40" height="40"/>
  <rect x="660" width="40" height="40"/>
  <rect x="660" y="88" width="40" height="40"/>
  <rect x="660" y="176" width="40" height="40"/>
  <rect x="704" width="40" height="40"/>
  <rect x="704" y="88" width="40" height="40"/>
  <rect x="704" y="132" width="40" height="40"/>
  <rect x="704" y="176" width="40" height="40"/>
  <rect x="792" y="0" width="40" height="40"/>
  <rect x="792" y="44" width="40" height="40"/>
  <rect x="792" y="88" width="40" height="40"/>
  <rect x="792" y="132" width="40" height="40"/>
  <rect x="792" y="176" width="40" height="40"/>
  <rect x="836" y="44" width="40" height="40"/>
  <rect x="880" y="88" width="40" height="40"/>
  <rect x="924" y="132" width="40" height="40"/>
  <rect x="968" y="0" width="40" height="40"/>
  <rect x="968" y="44" width="40" height="40"/>
  <rect x="968" y="88" width="40" height="40"/>
  <rect x="968" y="132" width="40" height="40"/>
  <rect x="968" y="176" width="40" height="40"/>
  <rect x="1056" y="0" width="40" height="40"/>
  <rect x="1056" y="44" width="40" height="40"/>
  <rect x="1056" y="88" width="40" height="40"/>
  <rect x="1056" y="132" width="40" height="40"/>
  <rect x="1056" y="176" width="40" height="40"/>
  <rect x="1100" y="0" width="40" height="40"/>
  <rect x="1100" y="88" width="40" height="40"/>
  <rect x="1144" y="0" width="40" height="40"/>
  <rect x="1144" y="88" width="40" height="40"/>
  <rect x="1188" y="0" width="40" height="40"/>
  <rect x="1188" y="88" width="40" height="40"/>
  <rect x="1232" y="0" width="40" height="40"/>
  <rect x="1232" y="44" width="40" height="40"/>
  <rect x="1232" y="88" width="40" height="40"/>
  <rect x="1232" y="132" width="40" height="40"/>
  <rect x="1232" y="176" width="40" height="40"/>
  <rect x="1320" y="0" width="40" height="40"/>
  <rect x="1320" y="44" width="40" height="40"/>
  <rect x="1320" y="88" width="40" height="40"/>
  <rect x="1320" y="132" width="40" height="40"/>
  <rect x="1320" y="176" width="40" height="40"/>
  <rect x="1364" y="176" width="40" height="40"/>
  <rect x="1408" y="176" width="40" height="40"/>
  <rect x="1452" y="176" width="40" height="40"/>
  <rect x="1496" y="176" width="40" height="40"/>
  <rect x="1672" width="40" height="40"/>
  <rect x="1672" y="44" width="40" height="40"/>
  <rect x="1672" y="88" width="40" height="40"/>
  <rect x="1672" y="132" width="40" height="40"/>
  <rect x="1672" y="176" width="40" height="40"/>
  <rect x="1716" width="40" height="40"/>
  <rect x="1716" y="176" width="40" height="40"/>
  <rect x="1760" width="40" height="40"/>
  <rect x="1760" y="176" width="40" height="40"/>
  <rect x="1804" width="40" height="40"/>
  <rect x="1804" y="88" width="40" height="40"/>
  <rect x="1804" y="176" width="40" height="40"/>
  <rect x="1848" width="40" height="40"/>
  <rect x="1848" y="88" width="40" height="40"/>
  <rect x="1848" y="132" width="40" height="40"/>
  <rect x="1848" y="176" width="40" height="40"/>
  <rect x="1936" width="40" height="40"/>
  <rect x="1936" y="44" width="40" height="40"/>
  <rect x="1936" y="88" width="40" height="40"/>
  <rect x="1936" y="132" width="40" height="40"/>
  <rect x="1936" y="176" width="40" height="40"/>
  <rect x="1980" width="40" height="40"/>
  <rect x="1980" y="88" width="40" height="40"/>
  <rect x="2024" width="40" height="40"/>
  <rect x="2024" y="88" width="40" height="40"/>
  <rect x="2068" width="40" height="40"/>
  <rect x="2068" y="88" width="40" height="40"/>
  <rect x="2112" width="40" height="40"/>
  <rect x="2112" y="44" width="40" height="40"/>
  <rect x="2112" y="88" width="40" height="40"/>
  <rect x="2112" y="132" width="40" height="40"/>
  <rect x="2112" y="176" width="40" height="40"/>
  <rect x="2200" width="40" height="40"/>
  <rect x="2200" y="44" width="40" height="40"/>
  <rect x="2200" y="88" width="40" height="40"/>
  <rect x="2200" y="132" width="40" height="40"/>
  <rect x="2200" y="176" width="40" height="40"/>
  <rect x="2244" width="40" height="40"/>
  <rect x="2244" y="88" width="40" height="40"/>
  <rect x="2288" width="40" height="40"/>
  <rect x="2288" y="88" width="40" height="40"/>
  <rect x="2332" width="40" height="40"/>
  <rect x="2332" y="88" width="40" height="40"/>
  <rect x="2376" width="40" height="40"/>
  <rect x="2376" y="44" width="40" height="40"/>
  <rect x="2376" y="88" width="40" height="40"/>
  <rect x="2552" y="0" width="40" height="40"/>
  <rect x="2728" y="0" width="40" height="40"/>
  <rect x="2552" y="44" width="40" height="40"/>
  <rect x="2596" y="44" width="40" height="40"/>
  <rect x="2684" y="44" width="40" height="40"/>
  <rect x="2728" y="44" width="40" height="40"/>
  <rect x="2552" y="88" width="40" height="40"/>
  <rect x="2640" y="88" width="40" height="40"/>
  <rect x="2728" y="88" width="40" height="40"/>
  <rect x="2552" y="132" width="40" height="40"/>
  <rect x="2728" y="132" width="40" height="40"/>
  <rect x="2552" y="176" width="40" height="40"/>
  <rect x="2728" y="176" width="40" height="40"/>
  <rect x="2816" width="40" height="40"/>
  <rect x="2860" width="40" height="40"/>
  <rect x="2904" width="40" height="40"/>
  <rect x="2948" width="40" height="40"/>
  <rect x="2992" width="40" height="40"/>
  <rect x="2816" y="44" width="40" height="40"/>
  <rect x="2816" y="88" width="40" height="40"/>
  <rect x="2860" y="88" width="40" height="40"/>
  <rect x="2904" y="88" width="40" height="40"/>
  <rect x="2948" y="88" width="40" height="40"/>
  <rect x="2816" y="132" width="40" height="40"/>
  <rect x="2816" y="176" width="40" height="40"/>
  <rect x="2860" y="176" width="40" height="40"/>
  <rect x="2904" y="176" width="40" height="40"/>
  <rect x="2948" y="176" width="40" height="40"/>
  <rect x="2992" y="176" width="40" height="40"/>
  <rect x="3080" width="40" height="40"/>
  <rect x="3124" width="40" height="40"/>
  <rect x="3168" width="40" height="40"/>
  <rect x="3212" width="40" height="40"/>
  <rect x="3256" width="40" height="40"/>
  <rect x="3080" y="44" width="40" height="40"/>
  <rect x="3080" y="88" width="40" height="40"/>
  <rect x="3124" y="88" width="40" height="40"/>
  <rect x="3168" y="88" width="40" height="40"/>
  <rect x="3212" y="88" width="40" height="40"/>
  <rect x="3256" y="88" width="40" height="40"/>
  <rect x="3256" y="132" width="40" height="40"/>
  <rect x="3080" y="176" width="40" height="40"/>
  <rect x="3124" y="176" width="40" height="40"/>
  <rect x="3168" y="176" width="40" height="40"/>
  <rect x="3212" y="176" width="40" height="40"/>
  <rect x="3256" y="176" width="40" height="40"/>
  <rect x="3344" y="0" width="40" height="40"/>
  <rect x="3520" y="0" width="40" height="40"/>
  <rect x="3344" y="44" width="40" height="40"/>
  <rect x="3520" y="44" width="40" height="40"/>
  <rect x="3344" y="88" width="40" height="40"/>
  <rect x="3388" y="88" width="40" height="40"/>
  <rect x="3432" y="88" width="40" height="40"/>
  <rect x="3476" y="88" width="40" height="40"/>
  <rect x="3520" y="88" width="40" height="40"/>
  <rect x="3344" y="132" width="40" height="40"/>
  <rect x="3520" y="132" width="40" height="40"/>
  <rect x="3344" y="176" width="40" height="40"/>
  <rect x="3520" y="176" width="40" height="40"/>
 </g>
</svg>
